<svg xmlns="http://www.w3.org/2000/svg" xmlns:xlink="http://www.w3.org/1999/xlink" width="617" height="325" viewBox="0 0 617 325">
    <defs>
        <path id="prefix__a" d="M0.25 0.224L595.513 0.224 595.513 9.268 0.25 9.268z"/>
    </defs>
    <g fill="none" fill-rule="evenodd">
        <path fill="#F7F7FB" d="M30.584 322.94S-21.103 258.801 9.91 197.766C40.92 136.73 99.845 151.214 182.543 89.143 282.94 13.791 353.437 9.65 443.045 42.591c50.653 18.62 58.923 95.174 139.554 142.76 72.688 42.9 13.439 115.865-24.81 127.244-38.248 11.38-64.09 11.38-64.09 11.38L30.583 322.94z"/>
        <path fill="#2176FF" d="M372.849 170.975c-14.218 28.861-32.044 107.728-36.905 112.049-4.862 4.321-32.951 21.066-37.813 29.17-4.862 8.102-2.7 5.402-.54 5.941 2.16.54 124.241 1.08 124.241 1.08s-14.044-83.727-15.665-84.267c-1.62-.54-33.318-63.973-33.318-63.973"/>
        <path fill="#1B62D5" d="M352.634 318.825c22.421.156 46.081.28 59.106.343l-17.833-106.646c-9.511-18.44-21.058-41.547-21.058-41.547-1.792 3.639-3.642 8.072-5.516 13.05-1.85 80.1 9.687 102.552 1.022 116.825-6.762 11.137-12.934 16.12-15.721 17.975"/>
        <g transform="translate(15.122 315.293)">
            <mask id="prefix__b" fill="#fff">
                <use xlink:href="#prefix__a"/>
            </mask>
            <path fill="#2A6CD7" d="M590.99 9.269H4.773C2.274 9.269.25 7.244.25 4.746.25 2.25 2.274.224 4.772.224h586.219c2.497 0 4.522 2.025 4.522 4.522 0 2.498-2.025 4.523-4.522 4.523" mask="url(#prefix__b)"/>
        </g>
        <path fill="#2176FF" d="M447.717 136.14c20.277 18.717 65.41 36.466 65.41 36.466s6.858 63.358 2.18 99.232c-4.68 35.875-2.08 43.154-2.08 43.154h-93.065s-12.49-17.334-35.355-71.23c-14.557-34.313-11.958-72.787-11.958-72.787l56.67-25.476 18.198-9.359z"/>
        <path fill="#1B62D5" d="M420.162 314.991h93.064s-2.599-7.279 2.08-43.153c3.853-29.54-.116-77.712-1.638-93.804l-8.463-3.627c-21.249 6.122-33.493 37.815-37.095 68.786-2.41 20.724-36.742 41.124-59.2 52.356 7.378 14.065 11.252 19.442 11.252 19.442"/>
        <path fill="#2E5B9A" d="M397.346 71.109c-11.218 24.986 2.246 48.131 1.838 47.156-.408-.977 16.98-42.186 16.98-42.186l-18.818-4.97z"/>
        <path fill="#FF7318" d="M439.857 89.585l14.228 52.004c.401 1.467.06 3.03-.9 4.212-3.337 4.11-8.09 12.567-17.674 15.279-1.863.527-4.16.669-6.018.676-1.954.006-3.638-1.37-4.009-3.288l-9.533-49.324 23.906-19.56z"/>
        <path fill="#CE7931" d="M437.14 93.931l-5.2 2.132-15.989 13.082 8.583 43.73c14.554-9.075 16.676-15.2 12.607-58.944"/>
        <path fill="#FF7318" d="M439.335 112.589c-3.15 17.107-15.95 28.677-28.593 25.842-12.641-2.834-18.673-13.908-17.188-36.108 1.164-17.417 9.753-36.35 22.395-33.514 12.642 2.834 26.534 26.672 23.386 43.78"/>
        <path fill="#2176FF" d="M513.128 172.606c18.83 4.252 22.328 42.497 28.45 82.832.705 4.643 4.322 43.937 4.322 43.937s.36 7.203-6.843 10.804c-6.153 3.078-8.643 5.403-44.296 5.762-34.242.346-78.391-1.08-78.391-1.08s-.39-12.74 3.121-18.967c5.282-9.364 59.423-22.809 64.465-23.529.72-10.084-4.971-46.57 2.881-71.307 5.403-17.017 11.21-25.93 18.486-28.26 2.425-.777 5.013-.822 7.805-.192"/>
        <path fill="#1B62D5" d="M435.732 315.637c16.88.254 40.047.496 59.029.304 35.653-.36 38.143-2.685 44.296-5.762 7.203-3.601 7.563-9.724 7.563-9.724s-3.64-41.811-4.32-46.457c-3.963-27.01-8.243-57.919-18.205-72.838 9.364 27.448 10.872 50.607 11.04 60.498.084 5.01-.378 11.87-1.84 16.662-1.62 5.312-5.762 8.643-12.245 6.842-12.964-3.601-29.17 3.962-29.17 3.962s12.244-4.322 23.768-.36c11.525 3.961 35.294 30.25 9.364 39.974-7.935 2.976-55.462 5.403-89.28 6.899"/>
        <path fill="#96CFE0" d="M422.372 297.094s4.802-8.163 14.646-8.163c9.844 0 9.124 16.086 7.683 21.368-1.44 5.283-7.203 5.522-7.203 5.522l-21.128-.96 6.002-17.767z"/>
        <path fill="#6FA5FD" d="M400.954 319.487H267.76c-2.009 0-3.652-1.643-3.652-3.651v-1.05c0-2.009 1.643-3.652 3.652-3.652h133.193c2.008 0 3.652 1.643 3.652 3.651v1.05c0 2.009-1.644 3.652-3.652 3.652"/>
        <path fill="#FF7318" d="M419.732 298.055c-20.648-7.443-26.065-4.641-30.732-6.003-11.525-3.36-14.406-.48-21.848 19.928-1.483 4.066 2.88 4.322 7.202 4.322s9.604-8.403 11.284-9.364c1.681-.96 6.243-1.44 6.243-1.44s-1.44 0-3.602 4.322c-2.16 4.32-4.801 6.001-1.44 6.001s3.841-5.522 10.084-4.321c6.242 1.2 3.841 4.321 19.447 4.082 15.606-.241 27.384-.001 27.131-9.364-.24-8.884.743-13.326-7.683-14.886-6.483-1.2-16.086 6.723-16.086 6.723"/>
        <path fill="#A86B48" d="M420.002 298.055c13.805-1.56 9.754 15.635 8.313 17.076-1.44 1.44 7.687.506 7.687.506s4.288-6.898.686-14.821c-3.601-7.923-10.803-8.283-10.803-8.283l-6.123 3.36.24 2.162z"/>
        <path fill="#2E5B9A" d="M434.416 296.558c-.178 2.131-3.8 3.568-8.09 3.21-4.288-.359-7.622-2.377-7.443-4.508.178-2.131 3.8-3.569 8.089-3.21 4.289.358 7.622 2.377 7.444 4.508"/>
        <path fill="#3E6BAB" d="M433.318 295.498c-.158 1.904-3.394 3.189-7.227 2.868-3.832-.32-6.81-2.123-6.651-4.027.16-1.905 3.395-3.189 7.227-2.868 3.833.32 6.81 2.123 6.651 4.027"/>
        <path fill="#F0CEB4" d="M430.924 294.616c-.114 1.37-2.444 2.295-5.202 2.064-2.759-.23-4.903-1.528-4.788-2.9.114-1.37 2.444-2.294 5.203-2.064 2.758.23 4.901 1.529 4.787 2.9"/>
        <path fill="#3865AE" d="M262.89 293.104H128.716c-7.058 0-13.11-5.11-14.385-12.148L96.832 184.36c-1.65-9.11 5.25-17.506 14.385-17.506H245.39c7.058 0 13.11 5.11 14.384 12.148l17.5 96.595c1.65 9.11-5.249 17.506-14.385 17.506"/>
        <path fill="#6FA5FD" d="M269.159 275.96l-17.86-94.595c-1.3-6.893-7.477-11.898-14.68-11.898H100.264c-2.863 3.323-4.295 7.872-3.424 12.612l18.115 98.621c1.319 7.187 7.583 12.405 14.889 12.405h124.633c9.324 0 16.365-8.224 14.68-17.145"/>
        <path fill="#3865AE" d="M236.806 306.04h-25.472c-4.542 0-8.224-4.046-8.224-9.037v-46.57c0-7.942-5.862-14.381-13.092-14.381h-13.306c-7.23 0-13.09 6.439-13.09 14.382v52.153c0 8.918 6.607 16.132 14.725 16.077l69.515-.478c0-6.709-4.95-12.147-11.056-12.147"/>
        <path fill="#6FA5FD" d="M164.634 251.479v51.354c0 8.36 6.48 15.195 14.679 15.785l67.842-.425c-.007-1.11-5.355-3.136-11.96-3.136H207.64c-4.914 0-8.897-3.984-8.897-8.898v-54.68c0-7.822-6.34-14.162-14.162-14.162h-5.787c-7.821 0-14.161 6.34-14.161 14.162"/>
        <path fill="#FF7318" d="M306.637 300.122c10.254-5.696 22.784-3.798 27.34 1.898 4.558 5.696 5.317 9.494-4.936 9.494-10.252 0-30.757.759-34.175.38-3.417-.38 11.771-11.772 11.771-11.772"/>
        <path fill="#FF7318" d="M321.827 296.704c11.011-2.658 18.535 3.75 27.72 9.873 7.973 5.316 9.576 10.484.759 6.075-12.91-6.454-20.505-7.214-20.505-7.214l-7.974-8.734zM311.796 300.087c-5.56 0-10.416-1.774-14.34-1.446-3.927.327-16.357 13.085-14.395 14.066.14.07.294.135.459.195 2.951 1.087 6.282-.117 7.945-2.786 1.76-2.824 4.621-6.109 7.953-4.933 5.561 1.963 11.397 1.774 11.397 1.774l.981-6.87z"/>
        <path fill="#EF8A33" d="M308.536 313.792c-5.696-2.279 3.418-21.265 6.455-21.265 3.038 0 14.43 9.114 14.43 9.114s-2.68 1.511-11.771-1.519c-2.279-.76-4.177 12.15-6.835 13.67-2.658 1.518-2.279 0-2.279 0"/>
        <path fill="#264D8D" d="M393.545 112.321c-.53 20.907 6.594 24.443 11.576 27.282 4.984 2.839 26.447-1.851 29.598-7.022 8.06-13.229 1.276-25.564 3.079-25.378 1.803.187 3.45 5.337 8.153 12.02.437.622 3.491 4.753 3.651 3.38 2.183-18.722 11.931-24.536 9.61-43.472-1.712-13.96-10.573-12.851-10.573-12.851s-5.716-11.681-23.51-10.355c-11.923.889-22.551 5.534-34.841 8.697-12.29 3.163 14.54 31.02 30.481 20.842 15.942-10.177 8.07 12.241 10.586 13.98 2.515 1.739 1.21.23 2.363 11.702 1.153 11.471-13.415 18.96-17.59 19.943-13.35 3.14-15.583.937-18.507-4.09-2.537-4.362-4.076-14.678-4.076-14.678"/>
        <path fill="#FF7318" d="M448.805 105.847c-1.531 5.27-5.274 8.674-8.36 7.603-3.084-1.07-3.177-5.351-2.813-11.478.328-5.523 5.274-8.673 8.359-7.603 3.086 1.07 4.346 6.21 2.814 11.478"/>
        <path fill="#B7E1FF" d="M157.073 91.702H43.098c-1.24 0-2.246-1.006-2.246-2.247V40.41c0-1.24 1.006-2.246 2.246-2.246h113.975c1.24 0 2.246 1.005 2.246 2.246v49.045c0 1.24-1.006 2.247-2.246 2.247"/>
        <path fill="#FFF" d="M154.265 89.189H45.905c-1.002 0-1.814-.813-1.814-1.814V54.044c0-1.003.812-1.815 1.814-1.815h108.36c1.003 0 1.815.812 1.815 1.815v33.33c0 1.002-.812 1.815-1.815 1.815M49.371 46.28h-2.63c-.555 0-1.005-.45-1.005-1.005v-2.166c0-.555.45-1.006 1.005-1.006h2.63c.555 0 1.006.45 1.006 1.006v2.166c0 .555-.45 1.005-1.006 1.005M57.81 46.28h-2.63c-.556 0-1.006-.45-1.006-1.005v-2.166c0-.555.45-1.006 1.005-1.006h2.63c.556 0 1.006.45 1.006 1.006v2.166c0 .555-.45 1.005-1.006 1.005M66.248 46.28h-2.63c-.556 0-1.005-.45-1.005-1.005v-2.166c0-.555.45-1.006 1.005-1.006h2.63c.555 0 1.006.45 1.006 1.006v2.166c0 .555-.451 1.005-1.006 1.005"/>
        <path fill="#B7E1FF" d="M151.523 60.33H92.287c-.975 0-1.772-.797-1.772-1.772 0-.974.797-1.772 1.772-1.772h59.236c.975 0 1.772.798 1.772 1.772 0 .975-.797 1.772-1.772 1.772M106.969 87.67H47.732c-.974 0-1.771-.798-1.771-1.772 0-.975.797-1.772 1.771-1.772h59.237c.975 0 1.772.797 1.772 1.772 0 .974-.797 1.772-1.772 1.772M117.881 87.67h-6.129c-.333 0-.606-.273-.606-.606v-2.332c0-.333.273-.606.606-.606h6.13c.333 0 .605.273.605.606v2.332c0 .333-.272.606-.606.606M127.121 87.67h-6.129c-.333 0-.606-.273-.606-.606v-2.332c0-.333.273-.606.606-.606h6.13c.333 0 .605.273.605.606v2.332c0 .333-.272.606-.606.606M152.092 68.05H53.998c-.661 0-1.203-.54-1.203-1.202 0-.66.542-1.202 1.203-1.202h98.094c.662 0 1.203.541 1.203 1.202 0 .662-.541 1.203-1.203 1.203M152.092 73.24H53.998c-.661 0-1.203-.54-1.203-1.202 0-.66.542-1.202 1.203-1.202h98.094c.662 0 1.203.541 1.203 1.202 0 .662-.541 1.202-1.203 1.202"/>
        <path fill="#9EC8FF" d="M183.842 129.292H69.867c-1.24 0-2.246-1.006-2.246-2.246V78c0-1.24 1.006-2.246 2.246-2.246h113.975c1.24 0 2.246 1.006 2.246 2.246v49.046c0 1.24-1.006 2.246-2.246 2.246"/>
        <path fill="#FFF" d="M181.034 126.78H72.674c-1.002 0-1.814-.813-1.814-1.815v-33.33c0-1.003.812-1.815 1.814-1.815h108.36c1.003 0 1.815.812 1.815 1.814v33.331c0 1.002-.812 1.814-1.815 1.814M76.14 83.87h-2.63c-.555 0-1.005-.45-1.005-1.005V80.7c0-.556.45-1.006 1.005-1.006h2.63c.556 0 1.006.45 1.006 1.006v2.165c0 .556-.45 1.006-1.006 1.006M84.579 83.87h-2.63c-.556 0-1.006-.45-1.006-1.005V80.7c0-.556.45-1.006 1.005-1.006h2.63c.556 0 1.006.45 1.006 1.006v2.165c0 .556-.45 1.006-1.005 1.006M93.017 83.87h-2.63c-.555 0-1.006-.45-1.006-1.005V80.7c0-.556.45-1.006 1.006-1.006h2.63c.555 0 1.006.45 1.006 1.006v2.165c0 .556-.45 1.006-1.006 1.006"/>
        <path fill="#9EC8FF" d="M178.292 97.92h-59.237c-.974 0-1.771-.797-1.771-1.771 0-.975.797-1.773 1.771-1.773h59.237c.975 0 1.772.798 1.772 1.773 0 .974-.797 1.771-1.772 1.771M133.738 125.26H74.502c-.975 0-1.772-.797-1.772-1.771 0-.975.797-1.773 1.772-1.773h59.236c.975 0 1.772.798 1.772 1.773 0 .974-.797 1.771-1.772 1.771M144.65 125.26h-6.129c-.333 0-.606-.272-.606-.606v-2.332c0-.333.273-.606.606-.606h6.13c.333 0 .605.273.605.606v2.332c0 .334-.272.606-.605.606M153.89 125.26h-6.129c-.333 0-.606-.272-.606-.606v-2.332c0-.333.273-.606.606-.606h6.13c.333 0 .605.273.605.606v2.332c0 .334-.272.606-.606.606M178.862 105.641H80.767c-.661 0-1.202-.54-1.202-1.202 0-.661.541-1.203 1.202-1.203h98.095c.661 0 1.202.542 1.202 1.203s-.54 1.202-1.202 1.202M178.862 110.831H80.767c-.661 0-1.202-.541-1.202-1.202 0-.662.541-1.203 1.202-1.203h98.095c.661 0 1.202.541 1.202 1.203 0 .661-.54 1.202-1.202 1.202"/>
        <path fill="#4CBD24" d="M228.235 116.192c0 8.493-6.885 15.378-15.378 15.378s-15.378-6.885-15.378-15.378 6.885-15.377 15.378-15.377 15.378 6.884 15.378 15.377"/>
        <path fill="#FFF" d="M211.33 121.874h-.043c-.32-.012-.623-.156-.835-.397l-4.177-4.746c-.427-.486-.38-1.226.106-1.653.485-.427 1.225-.38 1.652.106l3.361 3.82 8.041-7.87c.463-.453 1.203-.445 1.656.017.452.463.444 1.203-.018 1.656l-8.923 8.733c-.22.215-.513.334-.82.334"/>
        <path fill="#9EC8FF" d="M326.764 44.76h-97.777c-2.507 0-4.557-2.052-4.557-4.558V5.268c0-2.506 2.05-4.557 4.557-4.557h97.777c2.507 0 4.557 2.051 4.557 4.557v34.934c0 2.506-2.05 4.557-4.557 4.557"/>
        <path fill="#9EC8FF" d="M237.34 38.114v24.302l28.004-28.004s-27.434 3.702-28.004 3.702"/>
        <path fill="#FFF" d="M321.929 40.392h-88.107c-2.126 0-3.864-1.738-3.864-3.863V8.942c0-2.125 1.738-3.864 3.864-3.864h88.107c2.124 0 3.863 1.739 3.863 3.864v27.587c0 2.125-1.739 3.863-3.863 3.863"/>
        <path fill="#9EC8FF" d="M282.147 13.812H238.86c-1.045 0-1.899-.854-1.899-1.899 0-1.044.854-1.899 1.899-1.899h43.288c1.045 0 1.899.855 1.899 1.9 0 1.044-.854 1.898-1.899 1.898M318.304 21.07h-80.288c-.58 0-1.056-.474-1.056-1.055v-.021c0-.58.476-1.056 1.056-1.056h80.288c.58 0 1.056.475 1.056 1.056v.021c0 .58-.476 1.056-1.056 1.056M318.304 25.203h-80.288c-.58 0-1.056-.475-1.056-1.055v-.022c0-.58.476-1.056 1.056-1.056h80.288c.58 0 1.056.475 1.056 1.056v.022c0 .58-.476 1.055-1.056 1.055M301.71 38.873h-2.63c-.555 0-1.006-.45-1.006-1.006v-2.165c0-.556.45-1.006 1.006-1.006h2.63c.555 0 1.006.45 1.006 1.006v2.165c0 .556-.451 1.006-1.007 1.006M310.148 38.873h-2.63c-.555 0-1.005-.45-1.005-1.006v-2.165c0-.556.45-1.006 1.005-1.006h2.63c.555 0 1.006.45 1.006 1.006v2.165c0 .556-.45 1.006-1.006 1.006M318.586 38.873h-2.63c-.555 0-1.005-.45-1.005-1.006v-2.165c0-.556.45-1.006 1.005-1.006h2.63c.555 0 1.006.45 1.006 1.006v2.165c0 .556-.45 1.006-1.006 1.006"/>
    </g>
</svg>
