<svg xmlns="http://www.w3.org/2000/svg" width="120" height="45" viewBox="0 0 120 45">
    <path fill="#FF7318" d="M5.792 36.429V25.594h6.201c2.897 0 5.162-.721 6.795-2.163 1.634-1.442 2.45-3.38 2.45-5.813 0-2.457-.81-4.401-2.431-5.83-1.622-1.43-3.893-2.145-6.814-2.145H0v26.786h5.792zm5.803-16.072H6.372V13.93h5.223c2.89 0 4.334 1.077 4.334 3.231 0 2.132-1.445 3.197-4.334 3.197zM32.956 36.43c1.917 0 3.593-.39 5.03-1.17 1.438-.778 2.546-1.899 3.324-3.36.779-1.46 1.168-3.165 1.168-5.113 0-1.948-.39-3.653-1.168-5.114-.778-1.461-1.886-2.581-3.323-3.36-1.438-.78-3.114-1.17-5.03-1.17-1.941 0-3.636.39-5.085 1.17-1.45.779-2.563 1.899-3.341 3.36-.779 1.461-1.168 3.166-1.168 5.114s.39 3.652 1.168 5.113c.778 1.461 1.892 2.582 3.341 3.36 1.45.78 3.144 1.17 5.084 1.17zm.001-4.286c-2.856 0-4.284-1.786-4.284-5.357 0-1.774.366-3.11 1.098-4.01.733-.898 1.794-1.347 3.186-1.347 1.367 0 2.41.449 3.13 1.348.721.899 1.081 2.235 1.081 4.009 0 1.797-.36 3.14-1.08 4.027-.72.886-1.764 1.33-3.131 1.33zm19.078 4.286V9.643h-5.31v26.786h5.31zm12.282 0c1.267 0 2.402-.268 3.407-.804 1.004-.536 1.78-1.278 2.33-2.228v2.74h5.344v-18.52h-5.343v2.63c-.55-.95-1.327-1.704-2.331-2.264-1.005-.56-2.14-.84-3.407-.84-1.555 0-2.941.408-4.16 1.223-1.22.816-2.17 1.967-2.852 3.452-.681 1.486-1.022 3.178-1.022 5.077 0 1.9.34 3.574 1.022 5.023.682 1.448 1.626 2.563 2.833 3.342 1.208.779 2.6 1.169 4.179 1.169zm1.56-4.286c-1.38 0-2.439-.451-3.177-1.353-.738-.902-1.107-2.207-1.107-3.914 0-1.708.375-3.042 1.125-4.004.75-.962 1.804-1.443 3.159-1.443 1.355 0 2.396.463 3.122 1.388.726.926 1.09 2.255 1.09 3.987 0 1.731-.364 3.054-1.09 3.968-.726.914-1.767 1.37-3.122 1.37zm19.445 4.286V26.58c0-1.436.374-2.557 1.124-3.363.75-.805 1.838-1.207 3.266-1.207.88 0 1.761.21 2.642.631l.035-5.128c-.523-.247-1.166-.371-1.927-.371-1.214 0-2.303.316-3.266.947-.964.632-1.672 1.543-2.124 2.732l-.357-3.233h-5.069c.19 1.585.286 3.381.286 5.388v13.452h5.39zm15.563-22.5V8.57h-6.372v5.358h6.372zm-1.062 22.5V17.143h-5.31v19.286h5.31zm12.392 0c2.415 0 4.317-.512 5.704-1.535 1.387-1.022 2.081-2.41 2.081-4.163 0-1.462-.419-2.63-1.256-3.507-.837-.877-2.188-1.534-4.054-1.972l-3.05-.694c-.765-.17-1.297-.384-1.596-.64-.299-.255-.448-.59-.448-1.004 0-.56.25-.998.753-1.315.502-.317 1.196-.475 2.081-.475.909 0 1.848.17 2.816.512.969.34 1.92.84 2.853 1.497l1.506-3.689c-.98-.73-2.092-1.297-3.336-1.698-1.244-.402-2.512-.603-3.803-.603-1.53 0-2.882.25-4.054.749-1.172.499-2.087 1.199-2.745 2.1-.657.9-.986 1.924-.986 3.068 0 1.412.412 2.545 1.237 3.397.826.852 2.111 1.473 3.857 1.863l2.978.694c.909.195 1.543.426 1.901.694.36.268.539.633.539 1.096 0 .56-.252.986-.754 1.278-.502.292-1.22.438-2.152.438-1.22 0-2.416-.188-3.588-.566-1.172-.377-2.236-.92-3.193-1.625l-1.435 3.835c1.985 1.51 4.7 2.265 8.144 2.265z"/>
</svg>
