<svg xmlns="http://www.w3.org/2000/svg" xmlns:xlink="http://www.w3.org/1999/xlink" width="494" height="448" viewBox="0 0 494 448">
    <defs>
        <path id="prefix__a" d="M0 0.205L565.489 0.205 565.489 401.948 0 401.948z"/>
    </defs>
    <g fill="none" fill-rule="evenodd">
        <g transform="translate(0 45)">
            <mask id="prefix__b" fill="#fff">
                <use xlink:href="#prefix__a"/>
            </mask>
            <path fill="#EDEDF3" d="M437.452 161.535C417.208 138.66 392.802.707 309.195 72.557 266 109.68 193.161 40.69 132.874 64.517c-55.368 21.885-60.705 93.986-55.348 117.481 10.822 47.458-22.854 54.52-54.094 74.911-49.003 31.985-12.97 144.392 33.325 144.929 46.294.537 326.75-1.07 326.75-1.07s67.252.225 95.219-48.943c30.095-52.91 11.017-131.205-41.274-190.29" mask="url(#prefix__b)"/>
        </g>
        <path fill="#AED3FF" d="M127 237L329 237 329 124 127 124z"/>
        <path fill="#D2E4FF" d="M134 237L336 237 336 124 134 124z"/>
        <g transform="translate(153 147)">
            <ellipse cx="36.307" cy="35.214" fill="#D1F4C5" fill-rule="nonzero" rx="31.839" ry="31.86"/>
            <ellipse cx="31.839" cy="31.86" fill="#4CBD24" rx="31.839" ry="31.86"/>
            <path fill="#FFF" fill-rule="nonzero" d="M21.233 28.279c-1.03-1.25-2.88-1.427-4.128-.395-1.25 1.031-1.426 2.88-.395 4.13l10.179 12.343c1.227 1.488 3.428 1.698 4.915.47.216-.179.41-.383.579-.609L46.97 24.596c.966-1.3.697-3.139-.603-4.106-1.3-.967-3.136-.698-4.103.603l-12.78 17.19-8.251-10.004z"/>
        </g>
        <path fill="#F3F9FF" d="M313.041 157H252.96c-2.178 0-3.959 1.8-3.959 4s1.781 4 3.959 4h60.082c2.178 0 3.959-1.8 3.959-4s-1.781-4-3.959-4M313.041 174H252.96c-2.178 0-3.959 1.8-3.959 4s1.781 4 3.959 4h60.082c2.178 0 3.959-1.8 3.959-4s-1.781-4-3.959-4M313.041 190H252.96c-2.178 0-3.959 1.8-3.959 4s1.781 4 3.959 4h60.082c2.178 0 3.959-1.8 3.959-4s-1.781-4-3.959-4"/>
        <path fill="#AED3FF" d="M113 373L315 373 315 257 113 257z"/>
        <path fill="#D2E4FF" d="M120 373L322 373 322 257 120 257z"/>
        <g transform="translate(139 281)">
            <ellipse cx="36.307" cy="35.214" fill="#D1F4C5" fill-rule="nonzero" rx="31.839" ry="31.86"/>
            <ellipse cx="31.839" cy="31.86" fill="#4CBD24" rx="31.839" ry="31.86"/>
            <path fill="#FFF" fill-rule="nonzero" d="M21.233 28.279c-1.03-1.25-2.88-1.427-4.128-.395-1.25 1.031-1.426 2.88-.395 4.13l10.179 12.343c1.227 1.488 3.428 1.698 4.915.47.216-.179.41-.383.579-.609L46.97 24.596c.966-1.3.697-3.139-.603-4.106-1.3-.967-3.136-.698-4.103.603l-12.78 17.19-8.251-10.004z"/>
        </g>
        <path fill="#F3F9FF" d="M238.959 299h60.082c2.178 0 3.959-1.8 3.959-4s-1.781-4-3.959-4H238.96c-2.178 0-3.959 1.8-3.959 4s1.781 4 3.959 4M299.041 308H238.96c-2.178 0-3.959 1.8-3.959 4s1.781 4 3.959 4h60.082c2.178 0 3.959-1.8 3.959-4s-1.781-4-3.959-4M299.041 324H238.96c-2.178 0-3.959 1.8-3.959 4s1.781 4 3.959 4h60.082c2.178 0 3.959-1.8 3.959-4s-1.781-4-3.959-4"/>
        <path fill="#AED3FF" d="M113 105L315 105 315 0 113 0z"/>
        <path fill="#D2E4FF" d="M120 105L322 105 322 0 120 0z"/>
        <g transform="translate(139 19)">
            <ellipse cx="36.307" cy="35.214" fill="#D1F4C5" fill-rule="nonzero" rx="31.839" ry="31.86"/>
            <ellipse cx="31.839" cy="31.86" fill="#4CBD24" rx="31.839" ry="31.86"/>
            <path fill="#FFF" fill-rule="nonzero" d="M21.233 28.279c-1.03-1.25-2.88-1.427-4.128-.395-1.25 1.031-1.426 2.88-.395 4.13l10.179 12.343c1.227 1.488 3.428 1.698 4.915.47.216-.179.41-.383.579-.609L46.97 24.596c.966-1.3.697-3.139-.603-4.106-1.3-.967-3.136-.698-4.103.603l-12.78 17.19-8.251-10.004z"/>
        </g>
        <path fill="#F3F9FF" d="M299.041 34H238.96c-2.177 0-3.959 1.8-3.959 4s1.782 4 3.96 4h60.081c2.177 0 3.959-1.8 3.959-4s-1.782-4-3.959-4M299.041 50H238.96c-2.177 0-3.959 1.8-3.959 4s1.782 4 3.96 4h60.081c2.177 0 3.959-1.8 3.959-4s-1.782-4-3.959-4M299.041 66H238.96c-2.177 0-3.959 1.8-3.959 4s1.782 4 3.96 4h60.081c2.177 0 3.959-1.8 3.959-4s-1.782-4-3.959-4"/>
        <path fill="#CF5D14" d="M368 181s23.785 24.317 24.926 33.486C394.067 223.656 381.61 238 381.61 238L368 181z"/>
        <path fill="#163560" d="M358 433.088s-.808 12.706-3.328 12.888c-.335.024-12.783.024-12.783.024L326 445.91s.104-3.734 4.749-4.524c4.644-.789 12.418-3.973 15.232-9.96 2.96-6.3 12.019 1.662 12.019 1.662M393 433.088s-.806 12.706-3.323 12.888c-.335.024-12.763.024-12.763.024L361 445.945s.152-3.77 4.79-4.559c4.637-.789 12.4-3.973 15.209-9.96 2.955-6.3 12.001 1.662 12.001 1.662"/>
        <path fill="#163560" d="M341 294.683s4.086 26.267 19.328 72.896c15.243 46.629 17.32 66.82 17.32 66.82s4.123.601 8.478.601c2.755 0 7.874-1.062 7.874-1.062s.14-50.96-6.885-74.407C380.09 336.084 385.599 275 385.599 275L341 294.683z"/>
        <path fill="#1C468A" d="M332.012 276s-.586 39.709 6.317 88.464c6.902 48.755 4.563 69.45 4.563 69.45s5.682 1.014 7.678 1.08c2.137.07 8.854-.532 8.854-.532s9.88-48.773 7.047-73.176C363.638 336.882 380 277.548 380 277.548L332.012 276z"/>
        <path fill="#FFB27D" d="M364 183.338L356.23 189 345 186.674c.156-1.008.897-5.183 1.572-8.966l.12-.664c.578-3.218 1.077-5.983 1.077-5.983l10.489-5.143 3.91-1.918c-.01.068-.303 3.572-.344 4.083-.733 9.084 2.176 15.255 2.176 15.255"/>
        <path fill="#CF5D14" d="M346.162 180.914c.25-.1 15.534-4.391 17.195-3.87 1.66.522 2.643 3.578 2.643 3.578L341 186s1.968-3.806 5.162-5.086"/>
        <path fill="#FF7318" d="M386.378 281.388c-2.52 11.635-44.471 13.014-55.284 2.453-1.23-1.203-1.29-6.804-.827-14.356.907-14.754 3.821-36.947 3.935-48.286.055-5.475.799-11.076 1.79-16.161 2.107-10.84 5.32-19.345 5.32-19.345s20.49-6.702 24.324-5.562c18.47 5.49 23.262 89.622 20.742 101.257"/>
        <path fill="#CF5D14" d="M330 269c.932-14.61 3.927-36.587 4.044-47.816.057-5.422.821-10.968 1.84-16.004L348.55 203s12.386 49.32-18.551 66"/>
        <path fill="#FFB27D" d="M336.55 248.885s.85 1.976-.935 3.303c-1.784 1.327-2.941 3.476-2.533 5.047.409 1.571 4.323 4.134 5.68 3.72 1.356-.413 4.117-2.482 3.82-3.31-.297-.829 1.857-7.272-1.45-9.752-3.308-2.48-4.582.992-4.582.992"/>
        <path fill="#FF7318" d="M350.553 183s-12.202 2.256-21.924 16.414c-9.723 14.158-16.12 24.684-14.329 29.786 1.792 5.103 18.117 22.8 20.932 22.8 2.814 0 7.356-2.022 7.612-6.573 0 0-11.494-17.022-9.23-19.572.968-1.09 14.922-12.283 16.915-7.227 3.296 8.366.024-35.628.024-35.628"/>
        <path fill="#FCA56B" d="M361.695 168.368c-2.34 4.413-11.058 8.23-14.695 9.632.041-.227.083-.454.122-.676.587-3.275 1.095-6.089 1.095-6.089l10.655-5.233c2.355-.036 3.789.55 2.823 2.366"/>
        <path fill="#FFB27D" d="M344.974 171.782s15.794 4.887 18.71-4.916c2.917-9.801 6.92-15.772-3.04-19.307-9.96-3.534-13.042-.37-14.818 2.667-1.776 3.037-4.885 20.032-.852 21.556"/>
        <path fill="#163560" d="M346.442 149.59s.977 11.349 3.286 10.856c2.308-.493 4.402-.858 4.064 2.563-.338 3.421-3.54 7.372 3.576 7.977 7.115.605 17.343-18.049 15.388-21.58-5.64-10.191-34.466-12.247-26.314.184"/>
        <path fill="#2176FF" d="M468.578 448H36.422c-.232 0-.422-.45-.422-1s.19-1 .422-1h432.156c.232 0 .422.45.422 1s-.19 1-.422 1"/>
    </g>
</svg>
