<svg xmlns="http://www.w3.org/2000/svg" width="153" height="56" viewBox="0 0 153 56">
    <path fill="#FF7318" d="M7.385 45.333V31.85h7.906c3.693 0 6.581-.897 8.664-2.692 2.083-1.794 3.125-4.205 3.125-7.233 0-3.059-1.034-5.477-3.101-7.256C21.91 12.889 19.016 12 15.29 12H0v33.333h7.385zm7.398-20h-6.66v-8h6.66c3.685 0 5.527 1.34 5.527 4.022 0 2.652-1.842 3.978-5.527 3.978zm27.236 20c2.444 0 4.581-.485 6.414-1.454 1.832-.97 3.245-2.364 4.237-4.182.993-1.818 1.49-3.94 1.49-6.364s-.497-4.545-1.49-6.363c-.992-1.818-2.405-3.212-4.237-4.182-1.833-.97-3.97-1.455-6.414-1.455-2.474 0-4.634.485-6.482 1.455-1.848.97-3.268 2.364-4.26 4.182-.993 1.818-1.49 3.94-1.49 6.363 0 2.425.497 4.546 1.49 6.364.992 1.818 2.412 3.212 4.26 4.182 1.848.97 4.008 1.454 6.482 1.454zM42.02 40c-3.642 0-5.462-2.222-5.462-6.667 0-2.207.466-3.87 1.4-4.988.934-1.119 2.288-1.678 4.062-1.678 1.743 0 3.074.559 3.992 1.678.918 1.118 1.377 2.781 1.377 4.988 0 2.237-.459 3.908-1.377 5.012C45.094 39.448 43.763 40 42.02 40zm24.325 5.333V12h-6.77v33.333h6.77zm15.659 0c1.615 0 3.063-.333 4.343-1 1.28-.666 2.272-1.59 2.973-2.772v3.409h6.813V21.924H89.32v3.273c-.701-1.182-1.692-2.121-2.973-2.818-1.28-.697-2.728-1.046-4.343-1.046-1.982 0-3.75.508-5.305 1.523-1.554 1.015-2.766 2.447-3.635 4.296-.869 1.848-1.303 3.954-1.303 6.318 0 2.363.434 4.447 1.303 6.25s2.073 3.19 3.613 4.159c1.539.97 3.315 1.454 5.327 1.454zM83.994 40c-1.76 0-3.11-.561-4.051-1.684-.941-1.122-1.412-2.745-1.412-4.87s.478-3.786 1.435-4.984c.957-1.197 2.299-1.795 4.027-1.795 1.728 0 3.055.576 3.981 1.728.926 1.152 1.389 2.806 1.389 4.96 0 2.156-.463 3.802-1.389 4.94C87.048 39.43 85.721 40 83.994 40zm24.791 5.333V33.08c0-1.788.478-3.183 1.434-4.185.955-1.002 2.344-1.503 4.164-1.503 1.123 0 2.245.262 3.368.786l.045-6.381c-.667-.309-1.486-.463-2.457-.463-1.548 0-2.936.393-4.165 1.18-1.228.786-2.131 1.919-2.708 3.398l-.455-4.023h-6.462c.242 1.973.364 4.208.364 6.705v16.74h6.872zm19.843-28v-6.666h-8.124v6.666h8.124zm-1.354 28v-24h-6.77v24h6.77zm15.8 0c3.08 0 5.504-.636 7.273-1.909 1.769-1.272 2.653-3 2.653-5.182 0-1.818-.534-3.272-1.601-4.363-1.067-1.091-2.79-1.91-5.169-2.455l-3.888-.863c-.976-.213-1.654-.478-2.036-.796-.38-.318-.571-.735-.571-1.25 0-.697.32-1.242.96-1.636.64-.394 1.525-.591 2.653-.591 1.16 0 2.356.212 3.591.636 1.235.424 2.447 1.046 3.637 1.864l1.92-4.591c-1.25-.91-2.667-1.614-4.253-2.114-1.586-.5-3.202-.75-4.849-.75-1.952 0-3.675.31-5.169.932-1.494.621-2.66 1.493-3.5 2.614-.838 1.121-1.257 2.394-1.257 3.818 0 1.758.526 3.167 1.578 4.227 1.052 1.06 2.691 1.834 4.917 2.318l3.797.864c1.159.242 1.967.53 2.424.864.458.333.686.788.686 1.363 0 .697-.32 1.228-.96 1.591-.64.364-1.555.546-2.745.546-1.555 0-3.08-.235-4.574-.705-1.494-.47-2.851-1.144-4.071-2.023l-1.83 4.773c2.531 1.879 5.993 2.818 10.384 2.818z"/>
</svg>
